PathFileType	4	(X/Y/Z)	C:/Users/opensim2020/Desktop/walking_exp_matlab/subject03_walking13_straight_04.trc	
DataRate	CameraRate	NumFrames	NumMarkers	Units	OrigDataRate	OrigDataStartFrame	OrigNumFrames	
100.00	100.00	8	46	mm	100.00	2287	200	
Frame#	Time	LFHD			RFHD			LBHD			RBHD			C7			T10			CLAV			STRN			RBAK			LSHO			LUPA			LELB			LFRM			LWRA			LWRB			LFIN			RSHO			RUPA			RELB			RFRM			RWRA			RWRB			RFIN			LASI			RASI			LPSI			RPSI			LTHI			LKNE			LTIB			LANK			LHEE			LTOE			RTHI			RKNE			RTIB			RANK			RHEE			RTOE			*39			*40			*41			*42			*43			*44			*45			
		X1	Y1	Z1	X2	Y2	Z2	X3	Y3	Z3	X4	Y4	Z4	X5	Y5	Z5	X6	Y6	Z6	X7	Y7	Z7	X8	Y8	Z8	X9	Y9	Z9	X10	Y10	Z10	X11	Y11	Z11	X12	Y12	Z12	X13	Y13	Z13	X14	Y14	Z14	X15	Y15	Z15	X16	Y16	Z16	X17	Y17	Z17	X18	Y18	Z18	X19	Y19	Z19	X20	Y20	Z20	X21	Y21	Z21	X22	Y22	Z22	X23	Y23	Z23	X24	Y24	Z24	X25	Y25	Z25	X26	Y26	Z26	X27	Y27	Z27	X28	Y28	Z28	X29	Y29	Z29	X30	Y30	Z30	X31	Y31	Z31	X32	Y32	Z32	X33	Y33	Z33	X34	Y34	Z34	X35	Y35	Z35	X36	Y36	Z36	X37	Y37	Z37	X38	Y38	Z38	X39	Y39	Z39	X40	Y40	Z40	X41	Y41	Z41	X42	Y42	Z42	X43	Y43	Z43	X44	Y44	Z44	X45	Y45	Z45	X46	Y46	Z46	

126	1.250	1486.43713	-162.70476	1590.65027	1354.37476	-145.33385	1591.65759	1498.96472	-30.43900	1564.23022	1368.13892	-18.46239	1564.44336	1442.72021	22.96095	1393.18518	1437.20068	36.85023	1074.29529	1439.60315	-100.20369	1320.85962	1448.60974	-156.70148	1161.35706	1351.08777	66.65537	1207.54272	1594.50562	-52.72654	1357.27405	1672.42517	-101.95425	1175.23132	1683.20483	-160.89211	1069.20569	1661.05347	-261.17020	994.65247	1606.46069	-348.41925	930.02917	1658.09448	-339.53229	912.15411	1634.79846	-410.16678	876.66620	1280.11377	-48.39353	1340.04846	1213.54211	-33.17484	1115.60303	1207.75793	-33.96555	1000.84619	1206.35071	-18.11971	864.32935	1244.73743	-15.38959	764.47699	1193.84241	6.03266	766.67352	1211.02991	18.29854	690.93268	1568.42444	-123.36072	919.73328	1330.09314	-149.31764	924.53558	1496.72217	32.09302	937.21326	1350.07983	16.58362	940.83057	1594.08789	-17.79653	625.61804	1553.86829	22.96695	451.51074	1549.28442	148.10400	293.17767	1501.75354	255.58604	111.31159	1464.88708	306.98709	95.33581	1470.79651	125.28431	33.16749	1283.48767	-172.62871	635.77051	1329.27661	-249.74652	477.86963	1321.88831	-265.10614	285.73306	1366.43787	-307.22549	73.03753	1418.03137	-268.84860	32.52930	1392.27954	-448.58746	58.58134	1438.30725	-85.66068	1659.26172																		 
127	1.260	1485.85852	-175.61873	1590.22070	1353.55847	-158.50648	1591.07434	1498.28162	-43.29359	1564.01843	1367.35742	-31.49137	1564.07678	1441.83984	10.13232	1392.45703	1437.05042	22.64531	1073.44910	1439.01978	-113.30289	1320.55872	1448.13318	-170.41168	1161.52795	1350.65527	53.14218	1206.58826	1593.90271	-65.29838	1356.82263	1672.34973	-113.39223	1174.56470	1683.14722	-172.18050	1068.60938	1660.47314	-273.04410	995.70673	1605.33789	-361.16257	932.78217	1656.81873	-352.67648	914.37292	1633.19507	-423.89636	880.39966	1279.41663	-61.49102	1339.62366	1213.25366	-46.56230	1115.08484	1207.52844	-47.18799	1000.33777	1205.68237	-30.55214	863.87970	1243.65637	-27.24031	763.88641	1192.56250	-5.66711	766.52063	1209.62244	8.21504	690.92950	1568.06885	-138.01349	918.85596	1329.55847	-163.70117	925.04877	1496.53113	17.95539	936.47772	1349.90393	2.58824	940.73315	1594.66956	-31.58944	624.73364	1555.65320	9.43857	450.35413	1550.30566	139.09438	294.74243	1503.09753	251.95374	117.15168	1465.74890	302.80237	102.69153	1470.93054	124.60653	33.03903	1283.75745	-189.40828	636.88702	1330.53113	-263.63702	478.20316	1324.16772	-274.47522	284.88013	1366.54382	-313.40048	72.79768	1417.71484	-272.07220	35.62511	1394.56396	-454.27591	48.56173	1437.36292	-98.76723	1658.85913																		 
128	1.270	1485.21130	-188.40186	1590.29065	1352.72717	-171.67316	1591.06116	1497.32410	-56.53070	1564.39563	1366.45923	-44.67265	1564.19360	1440.99561	-2.62586	1392.37146	1437.02515	8.41185	1073.05347	1438.43445	-126.19419	1320.87354	1447.60596	-183.93002	1162.17603	1350.38892	39.64284	1205.93030	1593.25977	-77.97030	1356.69299	1672.15076	-124.68796	1174.00903	1683.21472	-183.04634	1067.97412	1660.06958	-284.64630	996.39105	1604.34912	-373.24915	935.11560	1655.70813	-365.06287	916.19293	1631.71802	-436.74271	883.57269	1278.65723	-74.55704	1339.54333	1212.91785	-60.08500	1114.78992	1207.06519	-60.62590	1000.12018	1204.89380	-43.43488	863.70685	1242.21606	-40.32079	763.79370	1191.35217	-18.13571	766.57751	1208.01770	-2.61587	691.02277	1567.73157	-152.64426	918.33081	1329.13696	-178.29552	925.69531	1496.21387	3.50286	935.98248	1349.62451	-12.32818	941.00165	1595.29736	-46.10895	623.94971	1557.87097	-4.89511	449.17441	1551.60815	129.29500	297.01428	1503.79456	246.65016	122.86475	1466.45117	297.49146	111.14287	1471.02100	123.99335	32.96137	1283.21606	-204.31522	638.25665	1330.92749	-276.54312	479.12543	1324.28882	-285.88321	285.82013	1366.12048	-320.75339	72.24995	1415.65381	-276.09192	38.06113	1395.95166	-460.75369	45.17735	1436.79968	-112.19212	1659.31409																		 
129	1.280	1484.18518	-201.93427	1590.67139	1351.88013	-184.90782	1591.25952	1496.56763	-69.51968	1565.33875	1365.68457	-57.82105	1565.03845	1440.12866	-15.49498	1392.77209	1437.25989	-5.70485	1073.10693	1437.76819	-139.04123	1321.61768	1447.08386	-197.47931	1163.09314	1350.01453	26.14845	1205.56750	1592.79224	-90.36308	1357.02722	1671.93799	-135.89204	1173.83679	1683.41614	-193.55402	1067.51465	1659.72205	-295.46368	997.04059	1603.58508	-384.55573	936.93549	1654.75183	-376.66455	917.60657	1630.50500	-448.74948	886.13354	1277.84351	-87.43477	1339.78760	1212.54395	-73.77560	1114.96204	1206.49060	-74.32367	1000.34210	1204.01709	-56.89183	863.94568	1240.51550	-52.67765	763.49908	1190.23145	-31.39085	766.90320	1206.46167	-14.69132	691.40436	1567.34839	-167.40738	918.19775	1328.86719	-192.96555	926.64941	1495.90173	-11.04043	935.91888	1349.27856	-27.17086	942.05908	1596.02148	-61.36768	623.48718	1560.69885	-20.34492	448.24274	1552.68677	118.51808	299.70938	1504.55701	240.55699	129.71494	1466.41064	290.87656	120.65105	1471.13708	123.60577	32.76434	1282.07983	-217.41060	639.12347	1330.37988	-289.31049	480.08453	1322.97766	-298.27499	286.70114	1366.30615	-326.56317	72.19964	1414.87280	-279.36395	40.12733	1393.20020	-465.85104	41.53345	1441.38708	-123.75094	1661.83044																		 
130	1.290	1483.30127	-215.09358	1591.24182	1351.00867	-198.26930	1591.73560	1495.65320	-82.61387	1566.51831	1364.70142	-71.05015	1566.09302	1439.34167	-28.36613	1393.56812	1437.43201	-19.76088	1073.55261	1436.94653	-151.78403	1322.54724	1446.55066	-211.22113	1164.48108	1349.46008	12.66737	1205.63245	1592.09216	-103.01308	1357.67334	1671.51636	-146.98593	1173.91077	1683.56128	-203.76805	1067.30420	1659.44824	-305.95813	997.46539	1602.94727	-395.25366	938.37372	1654.03308	-387.55463	918.67511	1629.44531	-459.99216	888.05005	1277.08752	-100.19076	1340.49756	1212.06494	-87.54713	1115.52539	1205.80188	-88.21610	1000.94263	1203.13220	-70.92293	864.56281	1240.37402	-66.49645	763.89673	1189.00281	-45.25611	767.60675	1205.04016	-28.18942	692.32617	1566.79395	-182.01517	918.44379	1328.68127	-207.67612	928.11914	1495.49829	-25.67056	936.15497	1348.94995	-41.84671	943.66980	1596.97937	-77.29893	623.08069	1564.15259	-37.13080	447.34973	1554.12305	106.28714	302.88657	1504.56299	232.72276	137.11441	1465.74060	282.57919	131.26671	1471.10242	122.76709	32.55022	1281.36011	-229.04836	639.82770	1330.64807	-302.53772	481.09186	1322.99512	-309.17169	287.35522	1367.48499	-328.48242	72.14610	1415.61182	-280.36893	40.51563	1391.89514	-467.64377	39.93591	1434.70386	-138.81483	1660.73499																		 
131	1.300	1482.51831	-228.39140	1592.18262	1350.18799	-211.56830	1592.51929	1494.78101	-95.68127	1567.93079	1363.79907	-84.19285	1567.36572	1438.45337	-41.24155	1394.67529	1437.36877	-33.69416	1074.33899	1436.30432	-164.77319	1323.79285	1446.00305	-224.94011	1166.11450	1348.84448	-0.78835	1206.15967	1591.54285	-115.61880	1358.80420	1671.11072	-158.01100	1174.40588	1683.48926	-213.64105	1067.31580	1659.28870	-316.10321	997.86383	1602.52307	-405.24203	939.30591	1653.49670	-397.60031	919.18158	1628.77429	-470.24689	889.45105	1276.37024	-113.22231	1341.38757	1211.46472	-101.34298	1116.50000	1205.12744	-102.46277	1002.03186	1202.11523	-85.26080	865.54730	1238.86670	-80.94992	764.66919	1187.77112	-59.97565	768.61511	1203.50818	-42.64354	693.15735	1566.14954	-196.51050	919.09308	1328.62085	-222.04768	930.11859	1495.26563	-40.19689	936.68170	1348.59631	-56.15077	945.77972	1598.10547	-93.96090	622.79523	1568.07056	-55.46585	446.42523	1555.70825	92.41422	306.28067	1504.40454	222.91417	145.06024	1464.77161	271.64459	142.58452	1471.41479	121.40215	32.73268	1281.50977	-240.77403	640.56952	1331.67285	-315.82114	482.16956	1323.38000	-318.48911	287.64157	1368.56396	-328.87872	72.38614	1415.94446	-280.47766	40.57222	1394.71265	-468.15906	39.37817	1438.94214	-150.62149	1663.47083																		 
132	1.310	1481.63110	-241.47569	1593.21631	1349.37317	-224.72490	1593.34583	1493.86682	-108.70473	1569.54639	1362.94128	-97.36657	1568.78149	1437.83594	-53.90660	1396.05261	1437.22400	-47.37409	1075.38123	1435.72229	-177.65677	1325.24719	1445.50281	-238.32678	1167.74524	1348.24780	-14.26452	1206.91394	1591.04480	-127.97452	1360.23425	1670.68848	-168.85814	1175.19324	1683.29333	-223.14674	1067.55273	1658.97803	-325.33667	998.09064	1602.35400	-414.62070	939.74945	1653.16162	-406.90198	919.25616	1628.33960	-479.75211	890.12292	1275.80688	-125.96464	1342.81506	1210.87549	-115.26569	1117.88489	1204.40930	-116.91280	1003.45111	1201.16455	-100.48537	866.98401	1237.60181	-96.58406	766.02991	1186.59424	-75.39631	770.00360	1202.14929	-58.31726	694.35236	1565.33557	-210.72569	920.04156	1328.50537	-236.09248	932.35150	1495.04358	-54.43636	937.49780	1348.42957	-70.03683	948.18585	1599.53198	-111.12443	622.58722	1572.30859	-75.18778	445.55017	1557.60596	76.68136	309.89197	1504.82959	211.41214	153.49132	1463.85657	258.13974	154.26996	1471.15442	120.04527	32.54758	1282.76135	-253.45428	641.81506	1333.18384	-328.25305	483.04260	1324.32532	-325.89374	288.11749	1369.07043	-330.14749	72.90790	1416.13477	-280.58588	40.83434	1395.34656	-468.66312	39.15197	1438.50610	-164.76625	1664.98926																		 
133	1.320	1480.80798	-254.57475	1594.33948	1348.49927	-237.88759	1594.30579	1493.05310	-121.67870	1571.31824	1362.15442	-110.37491	1570.31165	1437.16113	-66.87819	1397.32288	1437.00818	-60.68864	1076.58630	1435.26343	-190.61662	1326.85706	1445.05481	-251.78510	1169.50757	1347.55103	-27.71249	1207.91443	1590.47400	-140.47336	1361.88306	1670.26526	-179.44438	1176.16296	1682.88794	-232.43240	1067.93921	1658.77979	-334.26627	998.18518	1602.37854	-423.47052	939.70038	1652.98535	-415.47943	918.87170	1628.21216	-488.50134	889.99182	1275.36987	-138.79356	1344.35913	1210.19629	-129.22964	1119.49683	1203.60803	-131.52345	1005.15137	1200.14575	-116.02596	868.57080	1236.69470	-112.85485	767.35565	1185.60876	-91.70412	771.55206	1200.77563	-75.29615	695.73407	1564.17175	-224.72858	921.24725	1328.17896	-249.76543	934.69873	1494.99023	-68.39098	938.38171	1348.32971	-83.49259	950.61163	1601.09631	-128.80676	622.30371	1576.26086	-96.37621	444.51779	1559.76855	58.97301	313.40408	1505.94556	197.48982	161.24203	1463.57556	242.12325	165.84195	1470.92969	118.12856	32.10163	1283.79871	-267.41873	643.59869	1334.48706	-339.60144	483.70901	1324.98975	-332.37512	288.69479	1369.42554	-330.71906	73.15845	1416.28674	-280.63388	40.90221	1395.55017	-468.80139	39.05428	1436.91724	-177.74435	1666.06409																		 
